<svg xmlns="http://www.w3.org/2000/svg" xmlns:xlink="http://www.w3.org/1999/xlink" width="73.601" height="80.723" viewBox="0 0 73.601 80.723"><defs><style>.a,.b,.d{fill-rule:evenodd;}.a{fill:url(#a);}.b{fill:#fff;}.c{fill:url(#b);}.d{fill:#8dc63f;}</style><linearGradient id="a" x1="0.5" y1="1" x2="0.5" gradientUnits="objectBoundingBox"><stop offset="0" stop-color="#fd6306"/><stop offset="1" stop-color="#ff952c"/></linearGradient><radialGradient id="b" cx="23.44" cy="23.44" r="28.974" gradientUnits="userSpaceOnUse"><stop offset="0" stop-color="#9ad022"/><stop offset="1" stop-color="#8dcb37"/></radialGradient></defs><g transform="translate(0 -47.999)"><path class="a" d="M168.8,215.289A36.815,36.815,0,1,1,132,252.1,36.808,36.808,0,0,1,168.8,215.289Z" transform="translate(-132 -160.198)"/><path class="b" d="M1259.85,533.694s8.41-6.477,18.282,3.517C1278.245,537.387,1268.248,543.4,1259.85,533.694Z" transform="translate(-1212.033 -463.127)"/><path class="b" d="M1082.263,67.284s-10.76-3.182-8.2-19.229C1074.216,47.283,1084.826,54.437,1082.263,67.284Z" transform="translate(-1033.743 0)"/><ellipse class="c" cx="23.44" cy="23.44" rx="23.44" ry="23.44" transform="translate(13.126 68.935)"/><path class="d" d="M1210.09,391.045s4.541-9.9,10.783-9.849c.378.048,0,2.11,0,2.11s-5.76.98-9.611,8.207C1211.229,391.535,1210.09,391.045,1210.09,391.045Z" transform="translate(-1164.383 -319.071)"/></g></svg>